<svg xmlns="http://www.w3.org/2000/svg" version="1.1" xmlns:xlink="http://www.w3.org/1999/xlink" xmlns:svgjs="http://svgjs.dev/svgjs" width="1500" height="1500" viewBox="0 0 1500 1500"><rect width="1500" height="1500" fill="#000000"></rect><g transform="matrix(0.6666666666666666,0,0,0.6666666666666666,251.3321018615846,60.891767881241606)"><svg viewBox="0 0 179 247" data-background-color="#4a5d5e" preserveAspectRatio="xMidYMid meet" height="2069" width="1500" xmlns="http://www.w3.org/2000/svg" xmlns:xlink="http://www.w3.org/1999/xlink"><g id="tight-bounds" transform="matrix(1,0,0,1,-0.238446233223641,-0.09999999999999432)"><svg viewBox="0 0 179.47689246644728 247.2" height="247.2" width="179.47689246644728"><g><svg viewBox="0 0 488.86271999999997 673.3282637295048" height="247.2" width="179.47689246644728"><g transform="matrix(1,0,0,1,46.67135999999999,557.3260603893349)"><svg viewBox="0 0 395.52 116.00220334016991" height="116.00220334016991" width="395.52"><g id="textblocktransform"><svg viewBox="0 0 395.52 116.00220334016991" height="116.00220334016991" width="395.52" id="textblock"><g><svg viewBox="0 0 395.52 116.00220334016991" height="116.00220334016991" width="395.52"><g transform="matrix(1,0,0,1,0,0)"><svg width="395.52" viewBox="0.95 -40.55 170.63000000000002 50.05" height="116.00220334016991" data-palette-color="#d2dbc8"><path d="M9.75 0L4.4 0 4.4-24.95 0.95-24.95 0.95-28.9 4.4-28.9 4.4-30.4Q4.4-33.1 4.83-35.02 5.25-36.95 6.6-38 7.95-39.05 10.65-39.05L10.65-39.05Q11.65-39.05 12.43-38.98 13.2-38.9 14.15-38.7L14.15-38.7 14.15-34.8Q13.7-34.9 13.15-34.98 12.6-35.05 12.15-35.05L12.15-35.05Q10.6-35.05 10.18-34.02 9.75-33 9.75-31.3L9.75-31.3 9.75-28.9 14.15-28.9 14.15-24.95 9.75-24.95 9.75 0ZM25 0.4L25 0.4Q21.8 0.4 19.95-0.9 18.1-2.2 17.32-4.6 16.55-7 16.55-10.25L16.55-10.25 16.55-18.65Q16.55-21.9 17.32-24.3 18.1-26.7 19.95-28 21.8-29.3 25-29.3L25-29.3Q28.2-29.3 30.02-28 31.85-26.7 32.62-24.3 33.4-21.9 33.4-18.65L33.4-18.65 33.4-10.25Q33.4-7 32.62-4.6 31.85-2.2 30.02-0.9 28.2 0.4 25 0.4ZM25-3.55L25-3.55Q26.55-3.55 27.17-4.45 27.8-5.35 27.92-6.83 28.05-8.3 28.05-9.9L28.05-9.9 28.05-18.95Q28.05-20.6 27.92-22.05 27.8-23.5 27.17-24.43 26.55-25.35 25-25.35L25-25.35Q23.45-25.35 22.8-24.43 22.15-23.5 22.02-22.05 21.9-20.6 21.9-18.95L21.9-18.95 21.9-9.9Q21.9-8.3 22.02-6.83 22.15-5.35 22.8-4.45 23.45-3.55 25-3.55ZM46.25 0.4L46.25 0.4Q43.05 0.4 41.2-0.9 39.35-2.2 38.57-4.6 37.8-7 37.8-10.25L37.8-10.25 37.8-18.65Q37.8-21.9 38.57-24.3 39.35-26.7 41.2-28 43.05-29.3 46.25-29.3L46.25-29.3Q49.45-29.3 51.27-28 53.1-26.7 53.87-24.3 54.65-21.9 54.65-18.65L54.65-18.65 54.65-10.25Q54.65-7 53.87-4.6 53.1-2.2 51.27-0.9 49.45 0.4 46.25 0.4ZM46.25-3.55L46.25-3.55Q47.8-3.55 48.42-4.45 49.05-5.35 49.17-6.83 49.3-8.3 49.3-9.9L49.3-9.9 49.3-18.95Q49.3-20.6 49.17-22.05 49.05-23.5 48.42-24.43 47.8-25.35 46.25-25.35L46.25-25.35Q44.7-25.35 44.05-24.43 43.4-23.5 43.27-22.05 43.15-20.6 43.15-18.95L43.15-18.95 43.15-9.9Q43.15-8.3 43.27-6.83 43.4-5.35 44.05-4.45 44.7-3.55 46.25-3.55ZM66.24 0.4L66.24 0.4Q62.59 0.4 60.79-2.27 58.99-4.95 58.99-11.35L58.99-11.35 58.99-16.95Q58.99-20.25 59.54-23.08 60.09-25.9 61.62-27.6 63.14-29.3 66.09-29.3L66.09-29.3Q67.54-29.3 68.74-28.65 69.94-28 70.89-27.05L70.89-27.05 70.89-40.5 76.24-40.5 76.24 0 70.89 0 70.89-1.85Q69.94-0.85 68.82-0.23 67.69 0.4 66.24 0.4ZM67.59-3.8L67.59-3.8Q68.34-3.8 69.19-4.08 70.04-4.35 70.89-4.9L70.89-4.9 70.89-23.85Q70.19-24.35 69.34-24.73 68.49-25.1 67.49-25.1L67.49-25.1Q65.64-25.1 64.99-23.33 64.34-21.55 64.34-19.05L64.34-19.05 64.34-10.9Q64.34-8.9 64.57-7.28 64.79-5.65 65.49-4.73 66.19-3.8 67.59-3.8ZM98.44 9.5L93.09 9.5 93.09-28.9 98.44-28.9 98.44-26.6Q99.39-27.7 100.74-28.5 102.09-29.3 103.94-29.3L103.94-29.3Q106.19-29.3 107.51-28.13 108.84-26.95 109.49-25.18 110.14-23.4 110.34-21.58 110.54-19.75 110.54-18.45L110.54-18.45 110.54-11.45Q110.54-8.4 109.94-5.68 109.34-2.95 107.76-1.28 106.19 0.4 103.34 0.4L103.34 0.4Q101.79 0.4 100.59-0.38 99.39-1.15 98.44-2.15L98.44-2.15 98.44 9.5ZM102.29-3.8L102.29-3.8Q103.69-3.8 104.29-4.83 104.89-5.85 105.04-7.6 105.19-9.35 105.19-11.45L105.19-11.45 105.19-18.45Q105.19-20.25 104.99-21.78 104.79-23.3 104.14-24.2 103.49-25.1 102.09-25.1L102.09-25.1Q101.04-25.1 100.09-24.65 99.14-24.2 98.44-23.6L98.44-23.6 98.44-5.1Q99.19-4.55 100.14-4.17 101.09-3.8 102.29-3.8ZM120.59 0.4L120.59 0.4Q118.89 0.4 117.59-0.58 116.29-1.55 115.54-3.08 114.79-4.6 114.79-6.3L114.79-6.3Q114.79-9 115.69-10.85 116.59-12.7 118.16-13.98 119.74-15.25 121.81-16.2 123.89-17.15 126.19-18.05L126.19-18.05 126.19-20.1Q126.19-21.85 125.99-23 125.79-24.15 125.16-24.73 124.54-25.3 123.29-25.3L123.29-25.3Q122.19-25.3 121.51-24.8 120.84-24.3 120.54-23.38 120.24-22.45 120.24-21.2L120.24-21.2 120.24-19.75 114.94-19.95Q115.04-24.75 117.14-27.03 119.24-29.3 123.64-29.3L123.64-29.3Q127.94-29.3 129.74-26.95 131.54-24.6 131.54-20.15L131.54-20.15 131.54-6.95Q131.54-5.6 131.61-4.35 131.69-3.1 131.81-2.02 131.94-0.95 132.04 0L132.04 0 127.14 0Q126.99-0.8 126.76-2.02 126.54-3.25 126.44-4.25L126.44-4.25Q125.94-2.55 124.51-1.07 123.09 0.4 120.59 0.4ZM122.69-4.2L122.69-4.2Q123.49-4.2 124.19-4.65 124.89-5.1 125.44-5.68 125.99-6.25 126.19-6.6L126.19-6.6 126.19-14.8Q124.94-14.1 123.84-13.4 122.74-12.7 121.91-11.93 121.09-11.15 120.61-10.18 120.14-9.2 120.14-7.95L120.14-7.95Q120.14-6.2 120.79-5.2 121.44-4.2 122.69-4.2ZM142.18 0L136.83 0 136.83-28.9 142.18-28.9 142.18-24.8Q143.78-27.45 145.38-28.35 146.98-29.25 148.58-29.25L148.58-29.25Q148.78-29.25 148.96-29.25 149.13-29.25 149.43-29.2L149.43-29.2 149.43-23.3Q148.83-23.55 148.06-23.73 147.28-23.9 146.48-23.9L146.48-23.9Q145.23-23.9 144.21-23.33 143.18-22.75 142.18-21.1L142.18-21.1 142.18 0ZM158.18-0.05L152.83-0.05 152.83-40.55 158.18-40.55 158.18-16.4 165.98-28.9 171.58-28.9 164.78-17.6 171.38 0 166.03 0 160.63-14.8 158.18-11.1 158.18-0.05Z" opacity="1" transform="matrix(1,0,0,1,0,0)" fill="#ffffff" class="wordmark-text-0" data-fill-palette-color="primary" id="text-0"></path></svg></g></svg></g></svg></g></svg></g><g><svg viewBox="0 0 488.86271999999997 488.86271999999997" height="488.86271999999997" width="488.86271999999997"><g><svg viewBox="0 0 488.86271999999997 488.86271999999997" height="488.86271999999997" width="488.86271999999997"><g transform="matrix(1,0,0,1,129.20531187289984,136.01576967231162)"><svg viewBox="0 0 230.45209625420028 216.83118065537673" height="216.83118065537673" width="230.45209625420028"><g><svg xmlns="http://www.w3.org/2000/svg" xmlns:xlink="http://www.w3.org/1999/xlink" version="1.1" x="0" y="0" viewBox="0 0 99.99948909065621 94.089" enable-background="new 0 0 99.999 94.088" xml:space="preserve" width="230.45209625420028" height="216.83118065537673" class="icon-cg-0" data-fill-palette-color="accent" id="cg-0"><path d="M98.341 66.867c2.683-6.386 1.653-13.184 0.115-17.044-0.403-1.012-1.363-1.693-2.453-1.74-4.141-0.179-10.915 1.098-16.065 5.756-1.739-1.018-3.756-1.611-5.912-1.611-0.327 0-0.648 0.022-0.969 0.049-0.282-1.782-0.729-3.369-1.234-4.637-0.403-1.012-1.363-1.693-2.453-1.74-5.011-0.227-13.863 1.692-19.042 9.141-2.433-5.163-6.709-8.722-10.021-10.494V34.29c0-7.738-4.506-14.795-11.392-18.129V9.686h0.143c0.764 0 1.384-0.619 1.384-1.384V1.384C30.44 0.619 29.821 0 29.057 0H11.069c-0.764 0-1.384 0.619-1.384 1.384v6.918c0 0.765 0.62 1.384 1.384 1.384h0.323v6.475C4.506 19.494 0 26.551 0 34.29v57.031c0 1.527 1.239 2.768 2.768 2.768h17.255 17.517 54.514c1.303 0 2.429-0.908 2.705-2.182l4.803-22.139c0.178-0.816-0.025-1.67-0.551-2.324C98.82 67.209 98.589 67.026 98.341 66.867zM70.4 58.937c0.838-0.604 1.83-1.006 2.907-1.13 0.236-0.027 0.475-0.045 0.718-0.045 0.812 0 1.585 0.16 2.296 0.444 0.872 0.348 1.646 0.887 2.272 1.565 0.779 0.844 1.329 1.899 1.548 3.073 0.069 0.371 0.11 0.752 0.11 1.144 0 0.86-0.176 1.68-0.492 2.426H78.98h-2.844-2.785-2.473-2.588c-0.087-0.204-0.161-0.415-0.226-0.63-0.172-0.569-0.267-1.171-0.267-1.796C67.799 61.909 68.828 60.068 70.4 58.937zM52.199 64.856C54.235 53.991 63.236 51.898 67.23 51.51c0.173 0.706 0.346 1.587 0.458 2.586-3.257 2.094-5.425 5.742-5.425 9.893 0 0.832 0.09 1.643 0.255 2.426h-4.239l5.761-9.432c0.397-0.652 0.192-1.504-0.46-1.902-0.652-0.4-1.504-0.193-1.902 0.459l-6.643 10.875h-2.725l-0.239-0.17C52.129 65.775 52.172 65.312 52.199 64.856zM37.539 51.821c0.473-0.65 0.935-1.207 1.339-1.656 0.427 0.285 0.912 0.634 1.428 1.047 3.173 2.539 7.468 7.515 6.149 15.203h-4.241l-1.908-9.743-0.058-0.294c-0.146-0.75-0.873-1.242-1.624-1.092-0.559 0.11-0.971 0.542-1.085 1.064-0.039 0.18-0.044 0.369-0.007 0.561l0.007 0.035 1.854 9.469h-1.854-0.826-1.707c-0.084-0.245-0.163-0.488-0.234-0.729-0.138-0.468-0.256-0.932-0.345-1.387-0.29-1.48-0.329-2.887-0.197-4.206 0.097-0.971 0.285-1.893 0.542-2.762 0.145-0.488 0.307-0.962 0.487-1.416C35.898 54.306 36.735 52.926 37.539 51.821zM14.519 66.514c-0.565 0.148-1.078 0.466-1.453 0.93-0.525 0.654-0.728 1.508-0.55 2.324l4.075 18.785H5.535V34.29c0-6.09 3.851-11.597 9.58-13.706 1.088-0.399 1.812-1.438 1.812-2.597V9.686h6.452v8.302c0 1.159 0.724 2.197 1.812 2.597 5.73 2.108 9.581 7.616 9.581 13.706v12.125c-1.378 1.509-2.772 3.439-3.886 5.7-1.592-0.806-3.385-1.271-5.288-1.271-6.485 0-11.761 5.275-11.761 11.76C13.836 63.976 14.085 65.289 14.519 66.514zM29.23 66.415h-8.546c-0.82-1.055-1.313-2.375-1.313-3.811 0-3.434 2.793-6.227 6.227-6.227 1.274 0 2.459 0.386 3.448 1.046C28.471 60.182 28.427 63.214 29.23 66.415zM92.913 74.305l-3.091 14.248H40.306h-2.767-2.768H22.254l-3.569-16.455-0.032-0.148h12.792 1.265 2.062 2.457 0.311 2.767 0.248 2.415 3.602H50.3h7.938 1.872 1.773 3.51 1.087 3.37 8.35 4.456 1.011 3.131 4.605 2.021L92.913 74.305zM92.386 66.415h-6.854c0.165-0.783 0.255-1.594 0.255-2.426 0-2.313-0.681-4.468-1.84-6.289 3.399-2.925 7.542-3.775 9.919-4.006C94.525 56.397 95.202 61.625 92.386 66.415z" fill="#ffffff" data-fill-palette-color="accent"></path></svg></g></svg></g><g id="text-0"><path d="M70.674 183.071l-2.613 8.351-38.948-12.186-1.685 5.385-6.166-1.929 1.685-5.385-2.335-0.731c-2.812-0.88-5.15-1.852-7.015-2.918-1.871-1.068-3.133-2.475-3.784-4.223-0.652-1.748-0.538-4.027 0.341-6.839v0c0.326-1.042 0.655-1.952 0.988-2.73 0.329-0.786 0.751-1.639 1.266-2.56v0l6.091 1.906c-0.252 0.431-0.506 0.924-0.762 1.477-0.254 0.548-0.454 1.054-0.599 1.519v0c-0.505 1.613-0.296 2.808 0.625 3.585 0.93 0.773 2.279 1.437 4.05 1.991v0l3.747 1.172 2.147-6.863 6.166 1.929-2.147 6.863z" fill="#ffffff" data-fill-palette-color="accent"></path><path d="M94.759 137.701v0c-1.947 2.899-4.069 4.789-6.365 5.671-2.305 0.884-4.78 0.948-7.426 0.193-2.642-0.761-5.434-2.13-8.377-4.107v0l-11.398-7.657c-2.942-1.977-5.265-4.044-6.968-6.203-1.7-2.164-2.576-4.48-2.629-6.947-0.051-2.459 0.897-5.138 2.844-8.037v0c1.944-2.893 4.058-4.773 6.343-5.638 2.29-0.862 4.756-0.912 7.398-0.151 2.646 0.755 5.44 2.121 8.382 4.098v0l11.398 7.657c2.942 1.977 5.263 4.047 6.963 6.211 1.703 2.158 2.589 4.461 2.657 6.907 0.062 2.443-0.878 5.11-2.822 8.003zM89.396 134.098v0c0.943-1.403 1.196-2.659 0.76-3.767-0.432-1.114-1.278-2.178-2.539-3.191-1.255-1.009-2.606-2-4.052-2.972v0l-12.291-8.257c-1.496-1.005-2.937-1.89-4.324-2.656-1.387-0.766-2.692-1.147-3.914-1.144-1.213 0.001-2.291 0.703-3.233 2.107v0c-0.943 1.403-1.194 2.68-0.755 3.83 0.445 1.154 1.285 2.226 2.522 3.215 1.233 0.995 2.598 1.995 4.093 3v0l12.291 8.257c1.447 0.972 2.874 1.848 4.283 2.628 1.411 0.789 2.721 1.162 3.931 1.119 1.209-0.043 2.285-0.766 3.228-2.169z" fill="#ffffff" data-fill-palette-color="accent"></path><path d="M136.723 94.92v0c-2.779 2.115-5.397 3.219-7.855 3.313-2.467 0.092-4.83-0.646-7.091-2.214-2.255-1.573-4.456-3.77-6.603-6.591v0l-8.316-10.926c-2.147-2.821-3.678-5.527-4.593-8.12-0.91-2.597-0.992-5.071-0.246-7.424 0.745-2.344 2.507-4.573 5.285-6.689v0c2.773-2.111 5.381-3.207 7.824-3.289 2.446-0.076 4.796 0.672 7.051 2.245 2.26 1.569 4.464 3.764 6.611 6.584v0l8.316 10.927c2.147 2.821 3.675 5.529 4.586 8.125 0.915 2.593 1.01 5.057 0.285 7.395-0.729 2.332-2.481 4.553-5.254 6.664zM132.809 89.779v0c1.345-1.024 1.99-2.13 1.936-3.32-0.049-1.194-0.507-2.474-1.373-3.84-0.862-1.361-1.821-2.734-2.876-4.121v0l-8.968-11.782c-1.091-1.434-2.17-2.737-3.235-3.909-1.066-1.172-2.178-1.954-3.335-2.346-1.148-0.39-2.395-0.074-3.74 0.95v0c-1.345 1.024-1.995 2.151-1.951 3.381 0.048 1.236 0.498 2.522 1.349 3.858 0.846 1.34 1.815 2.726 2.906 4.16v0l8.967 11.782c1.055 1.387 2.124 2.677 3.206 3.87 1.08 1.202 2.2 1.978 3.359 2.328 1.159 0.35 2.41 0.013 3.755-1.011z" fill="#ffffff" data-fill-palette-color="accent"></path><path d="M188.286 68.636v0c-3.782 1.256-7.062 0.811-9.841-1.335-2.787-2.151-5.28-6.537-7.48-13.159v0l-2.886-8.688c-1.136-3.42-1.902-6.686-2.299-9.797-0.402-3.109-0.107-5.806 0.888-8.091 0.994-2.285 3.017-3.934 6.069-4.947v0c1.498-0.498 2.98-0.616 4.446-0.355 1.464 0.255 2.853 0.712 4.166 1.371v0l-6.936-20.876 8.304-2.759 20.885 62.862-8.304 2.759-0.955-2.874c-0.642 1.364-1.435 2.563-2.38 3.597-0.953 1.031-2.179 1.795-3.677 2.292zM188.209 61.427v0c0.78-0.259 1.562-0.678 2.347-1.258 0.787-0.573 1.526-1.29 2.217-2.15v0l-9.772-29.413c-0.896-0.277-1.849-0.467-2.86-0.568-1.009-0.095-2.031 0.03-3.067 0.374v0c-1.916 0.637-2.905 1.987-2.968 4.053-0.058 2.057 0.342 4.377 1.201 6.96v0l4.205 12.657c0.686 2.066 1.425 3.903 2.215 5.511 0.789 1.602 1.705 2.763 2.748 3.484 1.041 0.714 2.286 0.831 3.734 0.35z" fill="#ffffff" data-fill-palette-color="accent"></path><path d="M288.134 80.248l-8.441-2.304 16.537-60.591 8.441 2.303-0.992 3.636c1.313-0.889 2.794-1.559 4.444-2.008 1.651-0.456 3.451-0.418 5.398 0.113v0c2.366 0.646 4.076 1.777 5.128 3.393 1.058 1.618 1.675 3.453 1.851 5.506 0.176 2.052 0.107 4.068-0.209 6.047-0.314 1.973-0.657 3.645-1.031 5.016v0l-3.016 11.048c-0.874 3.204-2.017 6.154-3.427 8.85-1.417 2.694-3.194 4.698-5.332 6.01-2.135 1.305-4.704 1.549-7.704 0.729v0c-1.63-0.445-2.966-1.246-4.007-2.402-1.039-1.163-1.914-2.404-2.625-3.723v0zM299.933 60.921v0c1.472 0.402 2.672 0.15 3.601-0.756 0.922-0.907 1.714-2.259 2.374-4.055 0.661-1.797 1.292-3.799 1.895-6.007v0l3.016-11.048c0.518-1.897 0.89-3.673 1.117-5.33 0.229-1.662 0.13-3.063-0.295-4.201-0.427-1.132-1.377-1.899-2.849-2.301v0c-1.104-0.301-2.222-0.351-3.354-0.148-1.124 0.198-2.141 0.513-3.05 0.946v0l-7.966 29.187c0.627 0.798 1.389 1.531 2.284 2.198 0.889 0.665 1.964 1.17 3.227 1.515z" fill="#ffffff" data-fill-palette-color="accent"></path><path d="M347.715 91.289v0c-1.528-1.051-2.578-2.414-3.149-4.092-0.562-1.679-0.707-3.435-0.437-5.268 0.265-1.837 0.923-3.519 1.974-5.047v0c1.665-2.423 3.473-4.188 5.424-5.297 1.957-1.105 4.035-1.743 6.236-1.914 2.204-0.177 4.531-0.05 6.98 0.381 2.453 0.425 4.989 0.944 7.609 1.555v0l1.9-2.764c1.08-1.572 1.887-2.937 2.42-4.094 0.529-1.153 0.69-2.183 0.484-3.091-0.204-0.899-0.867-1.733-1.989-2.504v0c-0.992-0.682-1.946-1.006-2.862-0.974-0.916 0.033-1.792 0.372-2.628 1.019-0.845 0.648-1.653 1.533-2.423 2.655v0l-1.341 1.951-6.962-5.18c3.057-4.251 6.231-6.749 9.522-7.496 3.29-0.747 6.914 0.24 10.87 2.959v0c3.864 2.656 5.877 5.596 6.04 8.82 0.166 3.218-1.126 6.827-3.875 10.827v0l-12.232 17.795c-0.831 1.209-1.598 2.401-2.303 3.576-0.706 1.167-1.334 2.271-1.883 3.314-0.549 1.043-1.075 2.022-1.577 2.938v0l-6.601-4.537c0.36-0.814 0.818-1.84 1.374-3.078 0.55-1.242 1.091-2.342 1.623-3.301v0c-1.5 1.219-3.346 2.053-5.538 2.501-2.193 0.439-4.412-0.112-6.656-1.654zM354.802 87.039v0c0.721 0.495 1.535 0.756 2.443 0.782 0.908 0.026 1.786-0.049 2.633-0.226 0.847-0.176 1.468-0.359 1.863-0.55v0l7.599-11.056c-1.554-0.142-3.04-0.238-4.458-0.288-1.424-0.053-2.745 0.017-3.962 0.209-1.219 0.183-2.345 0.567-3.377 1.151-1.032 0.584-1.933 1.436-2.704 2.558v0c-1.08 1.572-1.637 3.008-1.67 4.31-0.033 1.302 0.511 2.338 1.633 3.11z" fill="#ffffff" data-fill-palette-color="accent"></path><path d="M392.447 132.83l-5.35-6.925 37.409-28.899 5.349 6.925-5.309 4.1c3.35-0.386 5.948-0.191 7.795 0.586 1.841 0.78 3.296 1.862 4.365 3.246v0c0.133 0.172 0.257 0.333 0.374 0.484 0.117 0.151 0.255 0.373 0.414 0.665v0l-7.642 5.904c-0.183-0.689-0.457-1.425-0.821-2.208-0.368-0.788-0.817-1.525-1.348-2.212v0c-0.836-1.082-1.846-1.873-3.029-2.372-1.178-0.503-2.809-0.635-4.893-0.396v0z" fill="#ffffff" data-fill-palette-color="accent"></path><path d="M417.159 178.682l-2.97-8.231 62.308-22.483 2.97 8.23-37.153 13.407 23.568 5.066 3.107 8.611-21.162-4.183-23.413 19.921-2.97-8.23 19.774-16.521-7.06-1.721z" fill="#ffffff" data-fill-palette-color="accent"></path><path d="M25.543 322.248l-2.62-8.37 38.994-12.203-1.685-5.385 6.167-1.93 1.685 5.385 2.344-0.733c2.818-0.882 5.298-1.413 7.439-1.594 2.146-0.189 3.986 0.251 5.52 1.321 1.532 1.064 2.738 3.002 3.618 5.814v0c0.326 1.042 0.578 1.979 0.756 2.813 0.17 0.829 0.306 1.772 0.41 2.828v0l-6.091 1.906c-0.047-0.502-0.119-1.052-0.216-1.648-0.103-0.595-0.229-1.127-0.376-1.598v0c-0.505-1.613-1.36-2.475-2.567-2.587-1.204-0.105-2.692 0.119-4.462 0.672v0l-3.756 1.176 2.151 6.872-6.167 1.93-2.15-6.872z" fill="#ffffff" data-fill-palette-color="accent"></path><path d="M54.423 380.58v0c-1.947-2.899-2.897-5.58-2.849-8.044 0.053-2.468 0.932-4.786 2.637-6.953 1.7-2.164 4.023-4.236 6.971-6.217v0l11.414-7.668c2.942-1.977 5.739-3.345 8.39-4.104 2.646-0.755 5.121-0.691 7.426 0.193 2.305 0.884 4.431 2.775 6.379 5.673v0c1.947 2.899 2.887 5.571 2.819 8.017-0.068 2.446-0.952 4.751-2.651 6.915-1.709 2.162-4.034 4.231-6.976 6.208v0l-11.415 7.669c-2.948 1.98-5.743 3.351-8.384 4.112-2.651 0.759-5.122 0.708-7.413-0.154-2.285-0.866-4.401-2.748-6.348-5.647zM59.786 376.977v0c0.943 1.403 2.014 2.113 3.214 2.131 1.195 0.021 2.498-0.363 3.909-1.152 1.414-0.784 2.845-1.662 4.291-2.634v0l12.307-8.268c1.496-1.005 2.86-2.005 4.093-2.999 1.242-0.993 2.093-2.056 2.553-3.188 0.454-1.129 0.209-2.395-0.733-3.798v0c-0.943-1.403-2.029-2.119-3.261-2.147-1.237-0.025-2.551 0.347-3.944 1.116-1.387 0.766-2.829 1.651-4.324 2.656v0l-12.307 8.268c-1.447 0.972-2.8 1.964-4.061 2.978-1.26 1.013-2.099 2.088-2.516 3.223-0.423 1.14-0.163 2.411 0.779 3.814z" fill="#ffffff" data-fill-palette-color="accent"></path><path d="M107.294 434.93v0c-2.779-2.115-4.543-4.346-5.293-6.694-0.746-2.353-0.662-4.831 0.252-7.433 0.91-2.597 2.441-5.308 4.591-8.133v0l8.328-10.943c2.147-2.821 4.352-5.018 6.617-6.592 2.26-1.569 4.624-2.307 7.091-2.215 2.467 0.092 5.09 1.196 7.868 3.312v0c2.779 2.115 4.531 4.341 5.256 6.678 0.725 2.337 0.633 4.804-0.277 7.4-0.919 2.598-2.452 5.307-4.599 8.128v0l-8.329 10.942c-2.151 2.826-4.354 5.025-6.608 6.598-2.264 1.574-4.619 2.323-7.066 2.247-2.442-0.082-5.052-1.18-7.831-3.295zM111.207 429.788v0c1.345 1.024 2.588 1.35 3.73 0.98 1.138-0.365 2.247-1.149 3.328-2.352 1.086-1.198 2.156-2.491 3.211-3.878v0l8.98-11.798c1.091-1.434 2.06-2.821 2.906-4.16 0.855-1.341 1.317-2.621 1.386-3.841 0.065-1.215-0.575-2.334-1.919-3.358v0c-1.345-1.024-2.605-1.35-3.779-0.98-1.179 0.376-2.303 1.152-3.373 2.33-1.066 1.172-2.144 2.475-3.236 3.909v0l-8.979 11.798c-1.055 1.387-2.016 2.763-2.882 4.129-0.866 1.366-1.313 2.654-1.341 3.863-0.032 1.215 0.624 2.334 1.968 3.358z" fill="#ffffff" data-fill-palette-color="accent"></path><path d="M172.959 468.657v0c-3.782-1.257-6.143-3.579-7.082-6.968-0.945-3.391-0.317-8.4 1.885-15.028v0l2.893-8.706c1.136-3.42 2.474-6.496 4.012-9.228 1.547-2.736 3.403-4.725 5.569-5.967 2.164-1.235 4.775-1.345 7.832-0.329v0c1.498 0.498 2.756 1.29 3.774 2.377 1.024 1.089 1.862 2.289 2.515 3.6v0l6.945-20.904 8.313 2.762-20.911 62.937-8.313-2.762 0.955-2.874c-1.324 0.71-2.677 1.196-4.06 1.457-1.381 0.255-2.823 0.133-4.327-0.367zM177.233 462.832v0c0.774 0.257 1.647 0.391 2.621 0.403 0.975 0.005 1.997-0.13 3.066-0.405v0l9.785-29.451c-0.552-0.759-1.203-1.477-1.955-2.157-0.749-0.686-1.642-1.2-2.678-1.544v0c-1.916-0.637-3.517-0.146-4.802 1.471-1.286 1.617-2.359 3.721-3.22 6.31v0l-4.208 12.666c-0.688 2.072-1.196 3.986-1.523 5.741-0.323 1.764-0.282 3.247 0.123 4.448 0.407 1.195 1.337 2.035 2.791 2.518z" fill="#ffffff" data-fill-palette-color="accent"></path><path d="M308.75 486.557l-8.451 2.306-16.552-60.659 8.451-2.306 0.989 3.626c0.687-1.428 1.626-2.758 2.818-3.99 1.191-1.232 2.76-2.113 4.708-2.644v0c2.373-0.647 4.426-0.543 6.159 0.313 1.733 0.856 3.198 2.127 4.394 3.811 1.196 1.685 2.161 3.46 2.894 5.325 0.732 1.859 1.285 3.474 1.66 4.844v0l3.017 11.058c0.878 3.217 1.391 6.345 1.539 9.386 0.154 3.039-0.359 5.667-1.54 7.885-1.175 2.216-3.262 3.733-6.264 4.552v0c-1.637 0.447-3.197 0.436-4.681-0.032-1.486-0.474-2.874-1.101-4.164-1.88v0zM309.097 463.885v0c1.478-0.403 2.384-1.23 2.718-2.48 0.34-1.252 0.338-2.822-0.007-4.712-0.343-1.883-0.817-3.932-1.422-6.146v0l-3.017-11.058c-0.518-1.897-1.1-3.619-1.748-5.168-0.654-1.546-1.449-2.699-2.385-3.459-0.945-0.765-2.156-0.945-3.635-0.542v0c-1.104 0.301-2.092 0.827-2.965 1.576-0.866 0.748-1.585 1.537-2.155 2.367v0l7.974 29.226c0.952 0.367 1.983 0.611 3.093 0.73 1.103 0.122 2.286 0.01 3.549-0.334z" fill="#ffffff" data-fill-palette-color="accent"></path><path d="M375.225 439.948v0c-1.528 1.05-3.178 1.542-4.948 1.474-1.769-0.077-3.463-0.569-5.083-1.474-1.618-0.915-2.952-2.136-4.003-3.665v0c-1.669-2.428-2.671-4.752-3.007-6.97-0.336-2.219-0.189-4.391 0.442-6.516 0.625-2.121 1.58-4.25 2.865-6.386 1.276-2.138 2.671-4.322 4.187-6.552v0l-1.906-2.772c-1.08-1.572-2.065-2.814-2.955-3.726-0.89-0.912-1.794-1.432-2.712-1.56-0.921-0.133-1.943 0.186-3.065 0.957v0c-0.992 0.682-1.637 1.456-1.934 2.323-0.298 0.867-0.295 1.811 0.007 2.832 0.299 1.015 0.836 2.087 1.61 3.215v0l1.341 1.951-7.33 4.643c-2.882-4.379-4.079-8.24-3.592-11.584 0.478-3.345 2.698-6.379 6.66-9.102v0c3.87-2.66 7.338-3.487 10.406-2.483 3.073 1 5.986 3.503 8.739 7.507v0l12.241 17.812c0.834 1.214 1.674 2.36 2.52 3.44 0.836 1.077 1.644 2.062 2.425 2.953 0.777 0.886 1.503 1.728 2.178 2.525v0l-6.609 4.543c-0.631-0.628-1.427-1.421-2.39-2.38-0.96-0.968-1.793-1.872-2.498-2.712v0c0.604 1.843 0.721 3.87 0.348 6.081-0.376 2.205-1.688 4.081-3.937 5.626zM373.799 431.795v0c0.721-0.495 1.256-1.162 1.606-2.001 0.349-0.839 0.596-1.687 0.741-2.544 0.136-0.859 0.185-1.508 0.147-1.945v0l-7.604-11.064c-0.69 1.4-1.313 2.757-1.869 4.073-0.56 1.31-0.972 2.568-1.238 3.772-0.262 1.209-0.303 2.398-0.122 3.567 0.175 1.172 0.648 2.319 1.42 3.441v0c1.084 1.577 2.228 2.614 3.431 3.112 1.204 0.497 2.366 0.361 3.488-0.411z" fill="#ffffff" data-fill-palette-color="accent"></path><path d="M429.861 387.279l-5.356 6.931-37.445-28.932 5.356-6.931 5.308 4.101c-1.22-3.153-1.685-5.719-1.395-7.698 0.294-1.983 0.976-3.667 2.045-5.051v0c0.133-0.172 0.257-0.333 0.374-0.484 0.117-0.151 0.296-0.34 0.539-0.568v0l7.642 5.904c-0.615 0.356-1.258 0.811-1.928 1.366-0.666 0.549-1.266 1.17-1.8 1.862v0c-0.832 1.077-1.345 2.252-1.538 3.524-0.189 1.267 0.095 2.883 0.854 4.848v0z" fill="#ffffff" data-fill-palette-color="accent"></path><path d="M461.489 328.516l-2.974 8.24-62.379-22.518 2.974-8.24 37.198 13.428-14.916-18.966 3.112-8.619 13.619 16.746 30.779-0.373-2.974 8.239-25.798 0.084 4.333 5.833z" fill="#ffffff" data-fill-palette-color="accent"></path><path d="M11.512 245.588c0-13.992 11.342-25.334 25.334-25.334 13.992 0 25.334 11.342 25.334 25.334 0 13.992-11.342 25.334-25.334 25.334-13.992 0-25.334-11.342-25.334-25.334z" fill="#ffffff" data-fill-palette-color="accent"></path><path d="M427.544 245.588c0-13.992 11.342-25.334 25.334-25.334 13.992 0 25.334 11.342 25.334 25.334 0 13.992-11.342 25.334-25.334 25.334-13.992 0-25.334-11.342-25.334-25.334z" fill="#ffffff" data-fill-palette-color="accent"></path></g><g id="text-1"></g></svg></g></svg></g><g></g></svg></g><defs></defs></svg><rect width="179.47689246644728" height="247.2" fill="none" stroke="none" visibility="hidden"></rect></g></svg></g></svg>